<?xml version="1.0" encoding="UTF-8" standalone="no"?>
<svg
   xmlns:dc="http://purl.org/dc/elements/1.1/"
   xmlns:cc="http://creativecommons.org/ns#"
   xmlns:rdf="http://www.w3.org/1999/02/22-rdf-syntax-ns#"
   xmlns:svg="http://www.w3.org/2000/svg"
   xmlns="http://www.w3.org/2000/svg"
   viewBox="0 0 1361.8667 380.02667"
   height="380.02667"
   width="1361.8667"
   xml:space="preserve"
   id="svg2"
   version="1.1"><metadata
     id="metadata8"><rdf:RDF><cc:Work
         rdf:about=""><dc:format>image/svg+xml</dc:format><dc:type
           rdf:resource="http://purl.org/dc/dcmitype/StillImage" /></cc:Work></rdf:RDF></metadata><defs
     id="defs6" /><g
     transform="matrix(1.3333333,0,0,-1.3333333,0,380.02667)"
     id="g10"><g
       transform="scale(0.1)"
       id="g12"><path
         id="path14"
         style="fill:#bb1a33;fill-opacity:1;fill-rule:nonzero;stroke:none"
         d="m 4000.38,1123.35 c -13.76,21.08 -26.53,25.75 -53.08,25.75 h -479.72 l -9.44,9.43 6.81,1071.04 c 0,14.22 -11.52,25.75 -25.74,25.75 h -229.99 c -14.22,0 -25.75,-11.53 -25.75,-25.75 l -6.81,-1306.961 c 0,-14.218 11.53,-25.738 25.75,-25.738 h 890.1 c 6.38,0 18.23,-0.012 22.67,10.078 4.13,9.391 1.28,17.762 -4.56,28.653 l -110.24,187.748" /><path
         id="path16"
         style="fill:#bb1a33;fill-opacity:1;fill-rule:nonzero;stroke:none"
         d="m 4845.09,1256.03 c 0,-57.33 -22.52,-104.42 -66.91,-139.98 -43.78,-35.01 -102.51,-52.76 -174.61,-52.76 -49.98,0 -91.24,11.76 -122.6,34.99 -32.35,23.85 -48.72,57.91 -48.72,101.2 v 3.9 c 0,49.89 19.75,88.61 58.73,115.07 37.85,25.67 90.14,38.68 155.5,38.68 36.8,0 71.95,-3.67 104.45,-10.95 32.38,-7.27 62.17,-16.99 88.59,-28.88 l 5.57,-8.59 z m 151.63,564.76 c -36.5,36.48 -83.53,64.94 -139.81,84.57 -56.61,19.71 -126.1,29.7 -206.53,29.7 -87.21,0 -162.56,-7.78 -223.94,-23.13 -52.77,-13.18 -104.3,-29.89 -153.54,-49.76 -9.34,-3.77 -14.07,-14.27 -10.94,-23.85 l 56.7,-173.08 c 3.33,-10.18 14.45,-15.44 24.56,-11.9 38.49,13.5 75.73,24.3 111.03,32.21 44.01,9.85 95.56,14.84 153.22,14.84 76.06,0 134.55,-17.18 173.91,-51.04 39.68,-34.24 59.8,-84.56 59.8,-149.53 v -17.54 l -12.5,-8.93 c -37.26,12.84 -75.87,23.22 -114.8,30.86 -38.89,7.65 -85.18,11.54 -137.62,11.54 -61.34,0 -117.93,-6.79 -168.21,-20.17 -49.99,-13.27 -93.52,-33.44 -129.46,-59.92 -35.69,-26.27 -63.92,-59.93 -83.95,-99.99 -20.03,-40.09 -30.2,-88.53 -30.2,-144 v -3.89 c 0,-50.4 9.22,-95.29 27.37,-133.46 18.12,-38.2 43.22,-70.941 74.58,-97.261 31.37,-26.368 68.66,-46.45 110.84,-59.649 42.46,-13.308 88.44,-20.051 136.61,-20.051 71.02,0 132.03,11.84 181.24,35.172 49.37,23.418 92.31,55.16 127.7,94.359 l 16.44,-6.33 v -84.599 c 0,-10.539 8.54,-19.09 19.09,-19.09 h 229.66 c 10.53,0 19.09,8.551 19.09,19.09 v 578.029 c 0,68.92 -9.03,131.92 -26.86,187.26 -17.68,54.9 -45.76,101.85 -83.48,139.54" /><path
         id="path18"
         style="fill:#bb1a33;fill-opacity:1;fill-rule:nonzero;stroke:none"
         d="m 6504.87,1942.87 c -69.67,0 -132.55,-13.89 -186.89,-41.24 -54.47,-27.42 -104.63,-68.58 -149.09,-122.31 l -15.69,1.73 c -26.33,51.75 -64.11,92.07 -112.31,119.85 -48.41,27.85 -106.91,41.97 -173.78,41.97 -36.58,0 -70.1,-4.5 -99.68,-13.38 -29.55,-8.88 -56.65,-21.07 -80.52,-36.25 -24.11,-15.36 -46.2,-33.08 -65.64,-52.7 -19.7,-19.78 -38.1,-40.93 -54.78,-62.89 l -16.95,5.71 v 120.91 c 0,10.54 -8.56,19.09 -19.09,19.09 h -239.4 c -10.54,0 -19.09,-8.55 -19.09,-19.09 V 915.961 c 0,-10.539 8.55,-19.09 19.09,-19.09 h 239.4 c 10.53,0 19.09,8.551 19.09,19.09 v 553.189 c 0,72.12 16.89,127.59 50.19,164.82 33.55,37.6 80.21,56.66 138.67,56.66 58.55,0 104.29,-19.14 135.93,-56.88 31.24,-37.22 47.09,-92.61 47.09,-164.6 V 915.961 c 0,-10.539 8.55,-19.09 19.1,-19.09 h 239.39 c 10.55,0 19.09,8.551 19.09,19.09 v 553.189 c 0,72.11 16.87,127.57 50.17,164.82 33.57,37.6 80.23,56.66 138.69,56.66 58.55,0 104.3,-19.14 135.94,-56.88 31.24,-37.24 47.06,-92.61 47.06,-164.6 V 915.961 c 0,-10.539 8.54,-19.09 19.09,-19.09 h 239.39 c 10.55,0 19.1,8.551 19.1,19.09 v 652.129 c 0,123 -30.63,217.27 -90.99,280.15 -60.27,62.79 -145.27,94.63 -252.58,94.63" /><path
         id="path20"
         style="fill:#bb1a33;fill-opacity:1;fill-rule:nonzero;stroke:none"
         d="m 9952.02,1256.03 c 0,-57.33 -22.52,-104.42 -66.9,-139.98 -43.78,-35.01 -102.51,-52.76 -174.61,-52.76 -49.98,0 -91.24,11.76 -122.61,34.99 -32.35,23.85 -48.72,57.91 -48.72,101.2 v 3.9 c 0,49.89 19.75,88.61 58.74,115.07 37.84,25.67 90.13,38.68 155.5,38.68 36.8,0 71.94,-3.67 104.44,-10.95 32.38,-7.27 62.18,-16.99 88.59,-28.88 l 5.57,-8.59 z m 235.08,425.22 c -17.7,54.9 -45.7,101.85 -83.5,139.54 -36.4,36.48 -83.5,64.94 -139.75,84.57 -56.63,19.71 -126.11,29.7 -206.54,29.7 -87.2,0 -162.56,-7.78 -223.93,-23.13 -52.78,-13.18 -104.31,-29.89 -153.55,-49.76 -9.34,-3.77 -14.08,-14.27 -10.94,-23.85 l 56.69,-173.08 c 3.34,-10.18 14.47,-15.44 24.57,-11.9 38.49,13.5 75.74,24.3 111.03,32.21 44.02,9.85 95.57,14.84 153.22,14.84 76.06,0 134.55,-17.18 173.91,-51.04 39.69,-34.24 59.8,-84.56 59.8,-149.53 v -17.54 l -12.5,-8.93 c -37.26,12.84 -75.88,23.22 -114.79,30.86 -38.9,7.65 -85.19,11.54 -137.63,11.54 -61.35,0 -117.93,-6.79 -168.21,-20.17 -49.99,-13.27 -93.52,-33.44 -129.45,-59.92 -35.7,-26.27 -63.93,-59.93 -83.96,-99.99 -20.03,-40.09 -30.19,-88.53 -30.19,-144 v -3.89 c 0,-50.4 9.21,-95.29 27.36,-133.46 18.12,-38.2 43.22,-70.941 74.59,-97.261 31.37,-26.368 68.66,-46.45 110.84,-59.649 42.45,-13.308 88.44,-20.051 136.6,-20.051 71.03,0 132.03,11.84 181.25,35.172 49.36,23.418 92.3,55.16 127.69,94.359 l 16.44,-6.33 v -84.599 c 0,-10.539 8.55,-19.09 19.09,-19.09 h 229.66 c 10.5,0 19.1,8.551 19.1,19.09 v 578.029 c 0,68.92 -9,131.92 -26.9,187.26" /><path
         id="path22"
         style="fill:#bb1a33;fill-opacity:1;fill-rule:nonzero;stroke:none"
         d="m 7754.05,1406.21 c 0,-45.21 -6.48,-86.39 -19.32,-122.39 -12.8,-36.06 -30.45,-67.58 -52.47,-93.68 -22.1,-26.16 -47.93,-46.6 -76.81,-60.73 -28.95,-14.13 -60.39,-21.29 -93.53,-21.29 -33.15,0 -64.63,7.16 -93.51,21.29 -28.95,14.15 -54.51,34.61 -76.01,60.82 -21.42,26.13 -38.77,57.97 -51.54,94.62 -12.81,36.71 -19.29,77.54 -19.29,121.36 v 3.89 c 0,43.78 6.48,84.6 19.29,121.36 12.77,36.67 30.12,68.5 51.54,94.58 21.5,26.24 47.06,46.7 76.01,60.84 28.85,14.14 60.33,21.29 93.51,21.29 33.17,0 64.63,-7.15 93.53,-21.29 28.88,-14.13 54.71,-34.56 76.81,-60.73 22.02,-26.1 39.7,-57.96 52.5,-94.69 12.81,-36.66 19.29,-77.5 19.29,-121.36 z m 137.97,398.15 c -40.41,45 -87.37,79.35 -139.56,102.12 -52.36,22.84 -107.2,34.42 -163.04,34.42 -71.13,0 -130.74,-15.6 -177.25,-46.37 -46.98,-31.07 -87.67,-71.27 -120.99,-119.46 l -15.96,5.59 v 455.27 c 0,10.55 -8.01,19.09 -17.9,19.09 h -224.43 c -9.88,0 -17.9,-8.54 -17.9,-19.09 V 915.961 c 0,-10.539 8.02,-19.09 17.9,-19.09 h 224.43 c 9.89,0 17.9,8.551 17.9,19.09 v 106.029 l 15.62,6.08 c 32.11,-40.629 72.31,-76.711 119.42,-107.23 46.52,-30.149 106.79,-45.442 179.16,-45.442 57.05,0 112.52,11.582 164.88,34.411 52.21,22.8 98.83,57.14 138.61,102.081 39.83,45.02 72.46,101.1 96.94,166.69 24.45,65.59 36.87,142.18 36.87,227.63 v 3.89 c 0,85.4 -12.42,161.98 -36.87,227.62 -24.48,65.51 -57.4,121.57 -97.83,166.64" /><path
         id="path24"
         style="fill:#bb1a33;fill-opacity:1;fill-rule:nonzero;stroke:none"
         d="m 8898.97,1406.21 c 0,-43.82 -6.48,-84.65 -19.28,-121.36 -12.78,-36.65 -30.13,-68.49 -51.56,-94.62 -21.5,-26.21 -47.05,-46.67 -75.99,-60.82 -28.89,-14.13 -60.37,-21.29 -93.52,-21.29 -33.13,0 -64.58,7.16 -93.52,21.29 -28.9,14.13 -54.72,34.57 -76.82,60.73 -22.01,26.1 -39.68,57.62 -52.47,93.68 -12.83,36 -19.32,77.18 -19.32,122.39 v 3.89 c 0,43.86 6.49,84.7 19.29,121.36 12.8,36.73 30.49,68.59 52.5,94.69 22.1,26.17 47.92,46.6 76.82,60.73 28.88,14.14 60.36,21.29 93.52,21.29 33.18,0 64.65,-7.15 93.52,-21.29 28.94,-14.14 54.49,-34.6 75.99,-60.84 21.43,-26.08 38.78,-57.91 51.56,-94.58 12.8,-36.76 19.28,-77.58 19.28,-121.36 z m 238.67,848.81 h -224.43 c -9.88,0 -17.89,-8.54 -17.89,-19.09 v -455.27 c -18.05,-5.93 -18.84,-1.47 -20.29,0.58 -32.5,45.46 -71.7,83.56 -116.65,113.29 -46.52,30.77 -106.14,46.37 -177.27,46.37 -55.84,0 -110.67,-11.58 -163.03,-34.42 -52.18,-22.77 -99.16,-57.12 -139.56,-102.12 -40.44,-45.07 -73.36,-101.13 -97.83,-166.64 -24.45,-65.64 -36.86,-142.22 -36.86,-227.62 v -3.89 c 0,-85.45 12.41,-162.04 36.86,-227.63 24.47,-65.59 57.11,-121.67 96.94,-166.69 39.77,-44.941 86.39,-79.281 138.61,-102.081 52.36,-22.829 107.82,-34.411 164.87,-34.411 72.37,0 132.66,15.293 179.17,45.442 47.11,30.519 87.32,66.601 119.43,107.23 l 15.61,-6.08 V 915.961 c 0,-10.539 8.01,-19.09 17.89,-19.09 h 224.43 c 9.89,0 17.91,8.551 17.91,19.09 V 2235.93 c 0,10.55 -8.02,19.09 -17.91,19.09" /><path
         id="path26"
         style="fill:#bb1a33;fill-opacity:1;fill-rule:nonzero;stroke:none"
         d="m 1246.64,1851.71 c -0.68,-0.01 -2.94,-0.21 -3.41,-2.03 L 881.043,1215.07 c -4.547,-8 -13.051,-13.02 -22.188,-13.03 l -295.64,0.26 c -9.246,0.01 -17.531,4.88 -22.145,13.07 -4.629,8.14 -4.632,17.89 -0.027,26.04 l 569.147,1000.83 c 4.55,8.07 13.03,13.1 22.21,13.08 l 114.24,-0.11 h 0.04 l 114.24,0.11 c 9.18,0.02 17.66,-5.01 22.2,-13.08 l 569.15,-1000.83 c 4.6,-8.15 4.6,-17.9 -0.03,-26.04 -4.61,-8.19 -12.89,-13.06 -22.14,-13.07 l -295.64,-0.26 c -9.13,0.01 -17.65,5.03 -22.19,13.03 l -362.18,634.61 c -1.02,1.86 -2.75,2.02 -3.41,2.03 -0.01,0 -0.02,0 -0.02,0 -0.01,0 -0.02,0 -0.02,0 z m 1194.19,998.4 -2388.3027,0.1 h -0.039 C 23.5,2850.21 0,2826.25 0,2796.7 V 940.852 C 0,923.52 8.23047,907.27 22.0898,897.219 L 1198.67,15.3984 C 1212.74,5.19141 1229.23,0.0898438 1245.7,0.101563 L 1245.75,0 c 0.01,0 0.03,0 0.04,0 v 0 c 16.47,0 32.95,5.10156 47.04,15.3008 L 2471.22,897.129 c 13.87,10.031 22.1,26.301 22.1,43.633 V 2796.6 c 0,29.56 -23.5,53.51 -52.49,53.51" /></g></g></svg>